<mxfile host="app.diagrams.net" modified="2024-06-01T11:27:11.135Z" agent="Mozilla/5.0 (X11; Linux x86_64; rv:125.0) Gecko/20100101 Firefox/125.0" etag="atdLvtQyBGXGyxGwpy2r" version="24.4.10" type="device">
  <diagram name="Page-1" id="IKWaYWiB5Xeum57ija8Y">
    <mxGraphModel dx="1057" dy="564" grid="1" gridSize="10" guides="1" tooltips="1" connect="1" arrows="1" fold="1" page="1" pageScale="1" pageWidth="850" pageHeight="1100" math="0" shadow="0">
      <root>
        <mxCell id="0" />
        <mxCell id="1" parent="0" />
        <mxCell id="kfbwJ9AQZt4Cy4s4MH8l-24" style="edgeStyle=orthogonalEdgeStyle;rounded=0;orthogonalLoop=1;jettySize=auto;html=1;startArrow=classic;startFill=1;endArrow=none;endFill=0;" edge="1" parent="1" source="kfbwJ9AQZt4Cy4s4MH8l-16" target="kfbwJ9AQZt4Cy4s4MH8l-22">
          <mxGeometry relative="1" as="geometry">
            <Array as="points">
              <mxPoint x="310" y="180" />
              <mxPoint x="310" y="415" />
            </Array>
          </mxGeometry>
        </mxCell>
        <mxCell id="kfbwJ9AQZt4Cy4s4MH8l-16" value="TreeNode: 1" style="swimlane;fontStyle=0;childLayout=stackLayout;horizontal=1;startSize=30;horizontalStack=0;resizeParent=1;resizeParentMax=0;resizeLast=0;collapsible=1;marginBottom=0;whiteSpace=wrap;html=1;fillColor=#dae8fc;strokeColor=#6c8ebf;" vertex="1" parent="1">
          <mxGeometry x="110" y="160" width="139" height="60" as="geometry" />
        </mxCell>
        <mxCell id="kfbwJ9AQZt4Cy4s4MH8l-17" value="parent_id: null" style="text;strokeColor=none;fillColor=none;align=left;verticalAlign=middle;spacingLeft=4;spacingRight=4;overflow=hidden;points=[[0,0.5],[1,0.5]];portConstraint=eastwest;rotatable=0;whiteSpace=wrap;html=1;" vertex="1" parent="kfbwJ9AQZt4Cy4s4MH8l-16">
          <mxGeometry y="30" width="139" height="30" as="geometry" />
        </mxCell>
        <mxCell id="kfbwJ9AQZt4Cy4s4MH8l-20" value="Page: 1" style="swimlane;fontStyle=0;childLayout=stackLayout;horizontal=1;startSize=30;horizontalStack=0;resizeParent=1;resizeParentMax=0;resizeLast=0;collapsible=1;marginBottom=0;whiteSpace=wrap;html=1;fillColor=#d5e8d4;strokeColor=#82b366;" vertex="1" parent="1">
          <mxGeometry x="110" y="340" width="139" height="120" as="geometry" />
        </mxCell>
        <mxCell id="kfbwJ9AQZt4Cy4s4MH8l-21" value="&lt;div&gt;reverse_id: &quot;club&quot;&lt;/div&gt;" style="text;strokeColor=none;fillColor=none;align=left;verticalAlign=middle;spacingLeft=4;spacingRight=4;overflow=hidden;points=[[0,0.5],[1,0.5]];portConstraint=eastwest;rotatable=0;whiteSpace=wrap;html=1;" vertex="1" parent="kfbwJ9AQZt4Cy4s4MH8l-20">
          <mxGeometry y="30" width="139" height="30" as="geometry" />
        </mxCell>
        <mxCell id="kfbwJ9AQZt4Cy4s4MH8l-22" value="node_id: 1" style="text;strokeColor=none;fillColor=none;align=left;verticalAlign=middle;spacingLeft=4;spacingRight=4;overflow=hidden;points=[[0,0.5],[1,0.5]];portConstraint=eastwest;rotatable=0;whiteSpace=wrap;html=1;" vertex="1" parent="kfbwJ9AQZt4Cy4s4MH8l-20">
          <mxGeometry y="60" width="139" height="30" as="geometry" />
        </mxCell>
        <mxCell id="kfbwJ9AQZt4Cy4s4MH8l-23" value="languages: de, en" style="text;strokeColor=none;fillColor=none;align=left;verticalAlign=middle;spacingLeft=4;spacingRight=4;overflow=hidden;points=[[0,0.5],[1,0.5]];portConstraint=eastwest;rotatable=0;whiteSpace=wrap;html=1;" vertex="1" parent="kfbwJ9AQZt4Cy4s4MH8l-20">
          <mxGeometry y="90" width="139" height="30" as="geometry" />
        </mxCell>
        <mxCell id="kfbwJ9AQZt4Cy4s4MH8l-25" value="PageContent" style="swimlane;fontStyle=0;childLayout=stackLayout;horizontal=1;startSize=30;horizontalStack=0;resizeParent=1;resizeParentMax=0;resizeLast=0;collapsible=1;marginBottom=0;whiteSpace=wrap;html=1;fillColor=#fff2cc;strokeColor=#d6b656;" vertex="1" parent="1">
          <mxGeometry x="10" y="500" width="139" height="120" as="geometry" />
        </mxCell>
        <mxCell id="kfbwJ9AQZt4Cy4s4MH8l-26" value="page_id: 1" style="text;strokeColor=none;fillColor=none;align=left;verticalAlign=middle;spacingLeft=4;spacingRight=4;overflow=hidden;points=[[0,0.5],[1,0.5]];portConstraint=eastwest;rotatable=0;whiteSpace=wrap;html=1;" vertex="1" parent="kfbwJ9AQZt4Cy4s4MH8l-25">
          <mxGeometry y="30" width="139" height="30" as="geometry" />
        </mxCell>
        <mxCell id="kfbwJ9AQZt4Cy4s4MH8l-28" value="title: &quot;Der Club&quot;" style="text;strokeColor=none;fillColor=none;align=left;verticalAlign=middle;spacingLeft=4;spacingRight=4;overflow=hidden;points=[[0,0.5],[1,0.5]];portConstraint=eastwest;rotatable=0;whiteSpace=wrap;html=1;" vertex="1" parent="kfbwJ9AQZt4Cy4s4MH8l-25">
          <mxGeometry y="60" width="139" height="30" as="geometry" />
        </mxCell>
        <mxCell id="kfbwJ9AQZt4Cy4s4MH8l-35" value="language: &quot;de&quot;" style="text;strokeColor=none;fillColor=none;align=left;verticalAlign=middle;spacingLeft=4;spacingRight=4;overflow=hidden;points=[[0,0.5],[1,0.5]];portConstraint=eastwest;rotatable=0;whiteSpace=wrap;html=1;" vertex="1" parent="kfbwJ9AQZt4Cy4s4MH8l-25">
          <mxGeometry y="90" width="139" height="30" as="geometry" />
        </mxCell>
        <mxCell id="kfbwJ9AQZt4Cy4s4MH8l-29" value="PageContent" style="swimlane;fontStyle=0;childLayout=stackLayout;horizontal=1;startSize=30;horizontalStack=0;resizeParent=1;resizeParentMax=0;resizeLast=0;collapsible=1;marginBottom=0;whiteSpace=wrap;html=1;fillColor=#fff2cc;strokeColor=#d6b656;" vertex="1" parent="1">
          <mxGeometry x="190" y="500" width="139" height="120" as="geometry" />
        </mxCell>
        <mxCell id="kfbwJ9AQZt4Cy4s4MH8l-30" value="page_id: 1" style="text;strokeColor=none;fillColor=none;align=left;verticalAlign=middle;spacingLeft=4;spacingRight=4;overflow=hidden;points=[[0,0.5],[1,0.5]];portConstraint=eastwest;rotatable=0;whiteSpace=wrap;html=1;" vertex="1" parent="kfbwJ9AQZt4Cy4s4MH8l-29">
          <mxGeometry y="30" width="139" height="30" as="geometry" />
        </mxCell>
        <mxCell id="kfbwJ9AQZt4Cy4s4MH8l-31" value="title: &quot;The club&quot;" style="text;strokeColor=none;fillColor=none;align=left;verticalAlign=middle;spacingLeft=4;spacingRight=4;overflow=hidden;points=[[0,0.5],[1,0.5]];portConstraint=eastwest;rotatable=0;whiteSpace=wrap;html=1;" vertex="1" parent="kfbwJ9AQZt4Cy4s4MH8l-29">
          <mxGeometry y="60" width="139" height="30" as="geometry" />
        </mxCell>
        <mxCell id="kfbwJ9AQZt4Cy4s4MH8l-36" value="language: &quot;en&quot;" style="text;strokeColor=none;fillColor=none;align=left;verticalAlign=middle;spacingLeft=4;spacingRight=4;overflow=hidden;points=[[0,0.5],[1,0.5]];portConstraint=eastwest;rotatable=0;whiteSpace=wrap;html=1;" vertex="1" parent="kfbwJ9AQZt4Cy4s4MH8l-29">
          <mxGeometry y="90" width="139" height="30" as="geometry" />
        </mxCell>
        <mxCell id="kfbwJ9AQZt4Cy4s4MH8l-34" value="" style="edgeStyle=orthogonalEdgeStyle;rounded=0;orthogonalLoop=1;jettySize=auto;html=1;startArrow=classic;startFill=1;endArrow=none;endFill=0;" edge="1" parent="1" source="kfbwJ9AQZt4Cy4s4MH8l-20" target="kfbwJ9AQZt4Cy4s4MH8l-30">
          <mxGeometry relative="1" as="geometry">
            <mxPoint x="260" y="349.9985714285714" as="sourcePoint" />
            <mxPoint x="350.97" y="534.97" as="targetPoint" />
            <Array as="points">
              <mxPoint x="350" y="360" />
              <mxPoint x="350" y="545" />
            </Array>
          </mxGeometry>
        </mxCell>
        <mxCell id="kfbwJ9AQZt4Cy4s4MH8l-37" value="" style="edgeStyle=orthogonalEdgeStyle;rounded=0;orthogonalLoop=1;jettySize=auto;html=1;startArrow=classic;startFill=1;endArrow=none;endFill=0;" edge="1" parent="1">
          <mxGeometry relative="1" as="geometry">
            <mxPoint x="249" y="360" as="sourcePoint" />
            <mxPoint x="149" y="549" as="targetPoint" />
            <Array as="points">
              <mxPoint x="280" y="360" />
              <mxPoint x="280" y="484" />
              <mxPoint x="170" y="484" />
              <mxPoint x="170" y="549" />
            </Array>
          </mxGeometry>
        </mxCell>
        <mxCell id="kfbwJ9AQZt4Cy4s4MH8l-38" value="TreeNode: 2" style="swimlane;fontStyle=0;childLayout=stackLayout;horizontal=1;startSize=30;horizontalStack=0;resizeParent=1;resizeParentMax=0;resizeLast=0;collapsible=1;marginBottom=0;whiteSpace=wrap;html=1;fillColor=#dae8fc;strokeColor=#6c8ebf;" vertex="1" parent="1">
          <mxGeometry x="370" y="160" width="139" height="60" as="geometry" />
        </mxCell>
        <mxCell id="kfbwJ9AQZt4Cy4s4MH8l-39" value="parent_id: null" style="text;strokeColor=none;fillColor=none;align=left;verticalAlign=middle;spacingLeft=4;spacingRight=4;overflow=hidden;points=[[0,0.5],[1,0.5]];portConstraint=eastwest;rotatable=0;whiteSpace=wrap;html=1;" vertex="1" parent="kfbwJ9AQZt4Cy4s4MH8l-38">
          <mxGeometry y="30" width="139" height="30" as="geometry" />
        </mxCell>
        <mxCell id="kfbwJ9AQZt4Cy4s4MH8l-40" value="Page: 2" style="swimlane;fontStyle=0;childLayout=stackLayout;horizontal=1;startSize=30;horizontalStack=0;resizeParent=1;resizeParentMax=0;resizeLast=0;collapsible=1;marginBottom=0;whiteSpace=wrap;html=1;fillColor=#d5e8d4;strokeColor=#82b366;" vertex="1" parent="1">
          <mxGeometry x="370" y="340" width="139" height="120" as="geometry" />
        </mxCell>
        <mxCell id="kfbwJ9AQZt4Cy4s4MH8l-41" value="&lt;div&gt;reverse_id: &quot;venues&quot;&lt;/div&gt;" style="text;strokeColor=none;fillColor=none;align=left;verticalAlign=middle;spacingLeft=4;spacingRight=4;overflow=hidden;points=[[0,0.5],[1,0.5]];portConstraint=eastwest;rotatable=0;whiteSpace=wrap;html=1;" vertex="1" parent="kfbwJ9AQZt4Cy4s4MH8l-40">
          <mxGeometry y="30" width="139" height="30" as="geometry" />
        </mxCell>
        <mxCell id="kfbwJ9AQZt4Cy4s4MH8l-42" value="node_id: 2" style="text;strokeColor=none;fillColor=none;align=left;verticalAlign=middle;spacingLeft=4;spacingRight=4;overflow=hidden;points=[[0,0.5],[1,0.5]];portConstraint=eastwest;rotatable=0;whiteSpace=wrap;html=1;" vertex="1" parent="kfbwJ9AQZt4Cy4s4MH8l-40">
          <mxGeometry y="60" width="139" height="30" as="geometry" />
        </mxCell>
        <mxCell id="kfbwJ9AQZt4Cy4s4MH8l-43" value="languages: en" style="text;strokeColor=none;fillColor=none;align=left;verticalAlign=middle;spacingLeft=4;spacingRight=4;overflow=hidden;points=[[0,0.5],[1,0.5]];portConstraint=eastwest;rotatable=0;whiteSpace=wrap;html=1;" vertex="1" parent="kfbwJ9AQZt4Cy4s4MH8l-40">
          <mxGeometry y="90" width="139" height="30" as="geometry" />
        </mxCell>
        <mxCell id="kfbwJ9AQZt4Cy4s4MH8l-44" value="PageContent" style="swimlane;fontStyle=0;childLayout=stackLayout;horizontal=1;startSize=30;horizontalStack=0;resizeParent=1;resizeParentMax=0;resizeLast=0;collapsible=1;marginBottom=0;whiteSpace=wrap;html=1;fillColor=#fff2cc;strokeColor=#d6b656;" vertex="1" parent="1">
          <mxGeometry x="370" y="500" width="139" height="120" as="geometry" />
        </mxCell>
        <mxCell id="kfbwJ9AQZt4Cy4s4MH8l-45" value="page_id: 2" style="text;strokeColor=none;fillColor=none;align=left;verticalAlign=middle;spacingLeft=4;spacingRight=4;overflow=hidden;points=[[0,0.5],[1,0.5]];portConstraint=eastwest;rotatable=0;whiteSpace=wrap;html=1;" vertex="1" parent="kfbwJ9AQZt4Cy4s4MH8l-44">
          <mxGeometry y="30" width="139" height="30" as="geometry" />
        </mxCell>
        <mxCell id="kfbwJ9AQZt4Cy4s4MH8l-46" value="title: &quot;Locations&quot;" style="text;strokeColor=none;fillColor=none;align=left;verticalAlign=middle;spacingLeft=4;spacingRight=4;overflow=hidden;points=[[0,0.5],[1,0.5]];portConstraint=eastwest;rotatable=0;whiteSpace=wrap;html=1;" vertex="1" parent="kfbwJ9AQZt4Cy4s4MH8l-44">
          <mxGeometry y="60" width="139" height="30" as="geometry" />
        </mxCell>
        <mxCell id="kfbwJ9AQZt4Cy4s4MH8l-47" value="language: &quot;en&quot;" style="text;strokeColor=none;fillColor=none;align=left;verticalAlign=middle;spacingLeft=4;spacingRight=4;overflow=hidden;points=[[0,0.5],[1,0.5]];portConstraint=eastwest;rotatable=0;whiteSpace=wrap;html=1;" vertex="1" parent="kfbwJ9AQZt4Cy4s4MH8l-44">
          <mxGeometry y="90" width="139" height="30" as="geometry" />
        </mxCell>
        <mxCell id="kfbwJ9AQZt4Cy4s4MH8l-48" style="edgeStyle=orthogonalEdgeStyle;rounded=0;orthogonalLoop=1;jettySize=auto;html=1;startArrow=classic;startFill=1;endArrow=none;endFill=0;" edge="1" source="kfbwJ9AQZt4Cy4s4MH8l-38" target="kfbwJ9AQZt4Cy4s4MH8l-42" parent="1">
          <mxGeometry relative="1" as="geometry">
            <Array as="points">
              <mxPoint x="530" y="180" />
              <mxPoint x="530" y="415" />
            </Array>
          </mxGeometry>
        </mxCell>
        <mxCell id="kfbwJ9AQZt4Cy4s4MH8l-49" value="" style="edgeStyle=orthogonalEdgeStyle;rounded=0;orthogonalLoop=1;jettySize=auto;html=1;startArrow=classic;startFill=1;endArrow=none;endFill=0;entryX=1;entryY=0.5;entryDx=0;entryDy=0;" edge="1" parent="1" target="kfbwJ9AQZt4Cy4s4MH8l-45">
          <mxGeometry relative="1" as="geometry">
            <mxPoint x="510" y="360" as="sourcePoint" />
            <mxPoint x="520" y="545" as="targetPoint" />
            <Array as="points">
              <mxPoint x="550" y="360" />
              <mxPoint x="550" y="545" />
            </Array>
          </mxGeometry>
        </mxCell>
        <mxCell id="kfbwJ9AQZt4Cy4s4MH8l-50" value="TreeNode: 3" style="swimlane;fontStyle=0;childLayout=stackLayout;horizontal=1;startSize=30;horizontalStack=0;resizeParent=1;resizeParentMax=0;resizeLast=0;collapsible=1;marginBottom=0;whiteSpace=wrap;html=1;fillColor=#dae8fc;strokeColor=#6c8ebf;" vertex="1" parent="1">
          <mxGeometry x="570" y="230" width="140" height="60" as="geometry" />
        </mxCell>
        <mxCell id="kfbwJ9AQZt4Cy4s4MH8l-51" value="parent_id: 2" style="text;strokeColor=none;fillColor=none;align=left;verticalAlign=middle;spacingLeft=4;spacingRight=4;overflow=hidden;points=[[0,0.5],[1,0.5]];portConstraint=eastwest;rotatable=0;whiteSpace=wrap;html=1;" vertex="1" parent="kfbwJ9AQZt4Cy4s4MH8l-50">
          <mxGeometry y="30" width="140" height="30" as="geometry" />
        </mxCell>
        <mxCell id="kfbwJ9AQZt4Cy4s4MH8l-52" value="TreeNode: 4" style="swimlane;fontStyle=0;childLayout=stackLayout;horizontal=1;startSize=30;horizontalStack=0;resizeParent=1;resizeParentMax=0;resizeLast=0;collapsible=1;marginBottom=0;whiteSpace=wrap;html=1;fillColor=#dae8fc;strokeColor=#6c8ebf;" vertex="1" parent="1">
          <mxGeometry x="770" y="230" width="140" height="60" as="geometry" />
        </mxCell>
        <mxCell id="kfbwJ9AQZt4Cy4s4MH8l-53" value="parent_id: 2" style="text;strokeColor=none;fillColor=none;align=left;verticalAlign=middle;spacingLeft=4;spacingRight=4;overflow=hidden;points=[[0,0.5],[1,0.5]];portConstraint=eastwest;rotatable=0;whiteSpace=wrap;html=1;" vertex="1" parent="kfbwJ9AQZt4Cy4s4MH8l-52">
          <mxGeometry y="30" width="140" height="30" as="geometry" />
        </mxCell>
        <mxCell id="kfbwJ9AQZt4Cy4s4MH8l-54" style="edgeStyle=orthogonalEdgeStyle;rounded=0;orthogonalLoop=1;jettySize=auto;html=1;startArrow=classic;startFill=1;endArrow=none;endFill=0;" edge="1" parent="1" target="kfbwJ9AQZt4Cy4s4MH8l-51">
          <mxGeometry relative="1" as="geometry">
            <mxPoint x="509" y="180" as="sourcePoint" />
            <mxPoint x="509" y="415" as="targetPoint" />
            <Array as="points">
              <mxPoint x="550" y="180" />
              <mxPoint x="550" y="275" />
            </Array>
          </mxGeometry>
        </mxCell>
        <mxCell id="kfbwJ9AQZt4Cy4s4MH8l-55" style="edgeStyle=orthogonalEdgeStyle;rounded=0;orthogonalLoop=1;jettySize=auto;html=1;startArrow=classic;startFill=1;endArrow=none;endFill=0;" edge="1" parent="1" target="kfbwJ9AQZt4Cy4s4MH8l-53">
          <mxGeometry relative="1" as="geometry">
            <mxPoint x="509" y="180" as="sourcePoint" />
            <mxPoint x="570" y="275" as="targetPoint" />
            <Array as="points">
              <mxPoint x="750" y="180" />
              <mxPoint x="750" y="275" />
            </Array>
          </mxGeometry>
        </mxCell>
        <mxCell id="kfbwJ9AQZt4Cy4s4MH8l-56" value="Page: 3" style="swimlane;fontStyle=0;childLayout=stackLayout;horizontal=1;startSize=30;horizontalStack=0;resizeParent=1;resizeParentMax=0;resizeLast=0;collapsible=1;marginBottom=0;whiteSpace=wrap;html=1;fillColor=#d5e8d4;strokeColor=#82b366;" vertex="1" parent="1">
          <mxGeometry x="571" y="340" width="139" height="120" as="geometry" />
        </mxCell>
        <mxCell id="kfbwJ9AQZt4Cy4s4MH8l-57" value="&lt;div&gt;reverse_id: &quot;venues&quot;&lt;/div&gt;" style="text;strokeColor=none;fillColor=none;align=left;verticalAlign=middle;spacingLeft=4;spacingRight=4;overflow=hidden;points=[[0,0.5],[1,0.5]];portConstraint=eastwest;rotatable=0;whiteSpace=wrap;html=1;" vertex="1" parent="kfbwJ9AQZt4Cy4s4MH8l-56">
          <mxGeometry y="30" width="139" height="30" as="geometry" />
        </mxCell>
        <mxCell id="kfbwJ9AQZt4Cy4s4MH8l-58" value="&lt;div&gt;node_id: 3&lt;/div&gt;" style="text;strokeColor=none;fillColor=none;align=left;verticalAlign=middle;spacingLeft=4;spacingRight=4;overflow=hidden;points=[[0,0.5],[1,0.5]];portConstraint=eastwest;rotatable=0;whiteSpace=wrap;html=1;" vertex="1" parent="kfbwJ9AQZt4Cy4s4MH8l-56">
          <mxGeometry y="60" width="139" height="30" as="geometry" />
        </mxCell>
        <mxCell id="kfbwJ9AQZt4Cy4s4MH8l-59" value="languages: en" style="text;strokeColor=none;fillColor=none;align=left;verticalAlign=middle;spacingLeft=4;spacingRight=4;overflow=hidden;points=[[0,0.5],[1,0.5]];portConstraint=eastwest;rotatable=0;whiteSpace=wrap;html=1;" vertex="1" parent="kfbwJ9AQZt4Cy4s4MH8l-56">
          <mxGeometry y="90" width="139" height="30" as="geometry" />
        </mxCell>
        <mxCell id="kfbwJ9AQZt4Cy4s4MH8l-60" value="PageContent" style="swimlane;fontStyle=0;childLayout=stackLayout;horizontal=1;startSize=30;horizontalStack=0;resizeParent=1;resizeParentMax=0;resizeLast=0;collapsible=1;marginBottom=0;whiteSpace=wrap;html=1;fillColor=#fff2cc;strokeColor=#d6b656;" vertex="1" parent="1">
          <mxGeometry x="571" y="500" width="139" height="120" as="geometry" />
        </mxCell>
        <mxCell id="kfbwJ9AQZt4Cy4s4MH8l-61" value="page_id: 3" style="text;strokeColor=none;fillColor=none;align=left;verticalAlign=middle;spacingLeft=4;spacingRight=4;overflow=hidden;points=[[0,0.5],[1,0.5]];portConstraint=eastwest;rotatable=0;whiteSpace=wrap;html=1;" vertex="1" parent="kfbwJ9AQZt4Cy4s4MH8l-60">
          <mxGeometry y="30" width="139" height="30" as="geometry" />
        </mxCell>
        <mxCell id="kfbwJ9AQZt4Cy4s4MH8l-62" value="title: &quot;Concert hall&quot;" style="text;strokeColor=none;fillColor=none;align=left;verticalAlign=middle;spacingLeft=4;spacingRight=4;overflow=hidden;points=[[0,0.5],[1,0.5]];portConstraint=eastwest;rotatable=0;whiteSpace=wrap;html=1;" vertex="1" parent="kfbwJ9AQZt4Cy4s4MH8l-60">
          <mxGeometry y="60" width="139" height="30" as="geometry" />
        </mxCell>
        <mxCell id="kfbwJ9AQZt4Cy4s4MH8l-63" value="language: &quot;en&quot;" style="text;strokeColor=none;fillColor=none;align=left;verticalAlign=middle;spacingLeft=4;spacingRight=4;overflow=hidden;points=[[0,0.5],[1,0.5]];portConstraint=eastwest;rotatable=0;whiteSpace=wrap;html=1;" vertex="1" parent="kfbwJ9AQZt4Cy4s4MH8l-60">
          <mxGeometry y="90" width="139" height="30" as="geometry" />
        </mxCell>
        <mxCell id="kfbwJ9AQZt4Cy4s4MH8l-64" value="Page: 4" style="swimlane;fontStyle=0;childLayout=stackLayout;horizontal=1;startSize=30;horizontalStack=0;resizeParent=1;resizeParentMax=0;resizeLast=0;collapsible=1;marginBottom=0;whiteSpace=wrap;html=1;fillColor=#d5e8d4;strokeColor=#82b366;" vertex="1" parent="1">
          <mxGeometry x="771" y="340" width="139" height="120" as="geometry" />
        </mxCell>
        <mxCell id="kfbwJ9AQZt4Cy4s4MH8l-65" value="&lt;div&gt;reverse_id: &quot;venues&quot;&lt;/div&gt;" style="text;strokeColor=none;fillColor=none;align=left;verticalAlign=middle;spacingLeft=4;spacingRight=4;overflow=hidden;points=[[0,0.5],[1,0.5]];portConstraint=eastwest;rotatable=0;whiteSpace=wrap;html=1;" vertex="1" parent="kfbwJ9AQZt4Cy4s4MH8l-64">
          <mxGeometry y="30" width="139" height="30" as="geometry" />
        </mxCell>
        <mxCell id="kfbwJ9AQZt4Cy4s4MH8l-66" value="node_id: 4" style="text;strokeColor=none;fillColor=none;align=left;verticalAlign=middle;spacingLeft=4;spacingRight=4;overflow=hidden;points=[[0,0.5],[1,0.5]];portConstraint=eastwest;rotatable=0;whiteSpace=wrap;html=1;" vertex="1" parent="kfbwJ9AQZt4Cy4s4MH8l-64">
          <mxGeometry y="60" width="139" height="30" as="geometry" />
        </mxCell>
        <mxCell id="kfbwJ9AQZt4Cy4s4MH8l-67" value="languages: en" style="text;strokeColor=none;fillColor=none;align=left;verticalAlign=middle;spacingLeft=4;spacingRight=4;overflow=hidden;points=[[0,0.5],[1,0.5]];portConstraint=eastwest;rotatable=0;whiteSpace=wrap;html=1;" vertex="1" parent="kfbwJ9AQZt4Cy4s4MH8l-64">
          <mxGeometry y="90" width="139" height="30" as="geometry" />
        </mxCell>
        <mxCell id="kfbwJ9AQZt4Cy4s4MH8l-68" value="PageContent" style="swimlane;fontStyle=0;childLayout=stackLayout;horizontal=1;startSize=30;horizontalStack=0;resizeParent=1;resizeParentMax=0;resizeLast=0;collapsible=1;marginBottom=0;whiteSpace=wrap;html=1;fillColor=#fff2cc;strokeColor=#d6b656;" vertex="1" parent="1">
          <mxGeometry x="771" y="500" width="139" height="120" as="geometry" />
        </mxCell>
        <mxCell id="kfbwJ9AQZt4Cy4s4MH8l-69" value="page_id: 4" style="text;strokeColor=none;fillColor=none;align=left;verticalAlign=middle;spacingLeft=4;spacingRight=4;overflow=hidden;points=[[0,0.5],[1,0.5]];portConstraint=eastwest;rotatable=0;whiteSpace=wrap;html=1;" vertex="1" parent="kfbwJ9AQZt4Cy4s4MH8l-68">
          <mxGeometry y="30" width="139" height="30" as="geometry" />
        </mxCell>
        <mxCell id="kfbwJ9AQZt4Cy4s4MH8l-70" value="title: &quot;Practice room&quot;" style="text;strokeColor=none;fillColor=none;align=left;verticalAlign=middle;spacingLeft=4;spacingRight=4;overflow=hidden;points=[[0,0.5],[1,0.5]];portConstraint=eastwest;rotatable=0;whiteSpace=wrap;html=1;" vertex="1" parent="kfbwJ9AQZt4Cy4s4MH8l-68">
          <mxGeometry y="60" width="139" height="30" as="geometry" />
        </mxCell>
        <mxCell id="kfbwJ9AQZt4Cy4s4MH8l-71" value="language: &quot;en&quot;" style="text;strokeColor=none;fillColor=none;align=left;verticalAlign=middle;spacingLeft=4;spacingRight=4;overflow=hidden;points=[[0,0.5],[1,0.5]];portConstraint=eastwest;rotatable=0;whiteSpace=wrap;html=1;" vertex="1" parent="kfbwJ9AQZt4Cy4s4MH8l-68">
          <mxGeometry y="90" width="139" height="30" as="geometry" />
        </mxCell>
        <mxCell id="kfbwJ9AQZt4Cy4s4MH8l-72" style="edgeStyle=orthogonalEdgeStyle;rounded=0;orthogonalLoop=1;jettySize=auto;html=1;startArrow=classic;startFill=1;endArrow=none;endFill=0;" edge="1" parent="1" source="kfbwJ9AQZt4Cy4s4MH8l-50" target="kfbwJ9AQZt4Cy4s4MH8l-58">
          <mxGeometry relative="1" as="geometry">
            <mxPoint x="710" y="240" as="sourcePoint" />
            <mxPoint x="710" y="475" as="targetPoint" />
            <Array as="points">
              <mxPoint x="731" y="240" />
              <mxPoint x="731" y="415" />
            </Array>
          </mxGeometry>
        </mxCell>
        <mxCell id="kfbwJ9AQZt4Cy4s4MH8l-73" style="edgeStyle=orthogonalEdgeStyle;rounded=0;orthogonalLoop=1;jettySize=auto;html=1;startArrow=classic;startFill=1;endArrow=none;endFill=0;" edge="1" parent="1" source="kfbwJ9AQZt4Cy4s4MH8l-52" target="kfbwJ9AQZt4Cy4s4MH8l-66">
          <mxGeometry relative="1" as="geometry">
            <mxPoint x="910" y="240" as="sourcePoint" />
            <mxPoint x="910" y="415" as="targetPoint" />
            <Array as="points">
              <mxPoint x="931" y="240" />
              <mxPoint x="931" y="415" />
            </Array>
          </mxGeometry>
        </mxCell>
        <mxCell id="kfbwJ9AQZt4Cy4s4MH8l-75" value="" style="edgeStyle=orthogonalEdgeStyle;rounded=0;orthogonalLoop=1;jettySize=auto;html=1;startArrow=classic;startFill=1;endArrow=none;endFill=0;entryX=1;entryY=0.5;entryDx=0;entryDy=0;" edge="1" parent="1">
          <mxGeometry relative="1" as="geometry">
            <mxPoint x="711" y="360" as="sourcePoint" />
            <mxPoint x="710" y="545" as="targetPoint" />
            <Array as="points">
              <mxPoint x="751" y="360" />
              <mxPoint x="751" y="545" />
            </Array>
          </mxGeometry>
        </mxCell>
        <mxCell id="kfbwJ9AQZt4Cy4s4MH8l-76" value="" style="edgeStyle=orthogonalEdgeStyle;rounded=0;orthogonalLoop=1;jettySize=auto;html=1;startArrow=classic;startFill=1;endArrow=none;endFill=0;entryX=1;entryY=0.5;entryDx=0;entryDy=0;" edge="1" parent="1">
          <mxGeometry relative="1" as="geometry">
            <mxPoint x="911" y="360" as="sourcePoint" />
            <mxPoint x="910" y="545" as="targetPoint" />
            <Array as="points">
              <mxPoint x="951" y="360" />
              <mxPoint x="951" y="545" />
            </Array>
          </mxGeometry>
        </mxCell>
        <mxCell id="kfbwJ9AQZt4Cy4s4MH8l-77" value="The club" style="rounded=0;whiteSpace=wrap;html=1;" vertex="1" parent="1">
          <mxGeometry x="20" y="40" width="80.5" height="20" as="geometry" />
        </mxCell>
        <mxCell id="kfbwJ9AQZt4Cy4s4MH8l-78" value="Locations" style="rounded=0;whiteSpace=wrap;html=1;align=center;" vertex="1" parent="1">
          <mxGeometry x="100.5" y="40" width="80.5" height="20" as="geometry" />
        </mxCell>
        <mxCell id="kfbwJ9AQZt4Cy4s4MH8l-79" value="Concert hall" style="rounded=0;whiteSpace=wrap;html=1;fillColor=#f5f5f5;fontColor=#333333;strokeColor=#666666;" vertex="1" parent="1">
          <mxGeometry x="100.5" y="60" width="80.5" height="20" as="geometry" />
        </mxCell>
        <mxCell id="kfbwJ9AQZt4Cy4s4MH8l-80" value="" style="triangle;whiteSpace=wrap;html=1;rotation=90;" vertex="1" parent="1">
          <mxGeometry x="107.5" y="48.5" width="3" height="5" as="geometry" />
        </mxCell>
        <mxCell id="kfbwJ9AQZt4Cy4s4MH8l-81" value="Practice room" style="rounded=0;whiteSpace=wrap;html=1;fillColor=#f5f5f5;fontColor=#333333;strokeColor=#666666;" vertex="1" parent="1">
          <mxGeometry x="100.5" y="80" width="80.5" height="20" as="geometry" />
        </mxCell>
        <mxCell id="kfbwJ9AQZt4Cy4s4MH8l-82" value="..." style="rounded=0;whiteSpace=wrap;html=1;" vertex="1" parent="1">
          <mxGeometry x="181" y="40" width="80.5" height="20" as="geometry" />
        </mxCell>
        <mxCell id="kfbwJ9AQZt4Cy4s4MH8l-83" value="..." style="rounded=0;whiteSpace=wrap;html=1;" vertex="1" parent="1">
          <mxGeometry x="261.5" y="40" width="80.5" height="20" as="geometry" />
        </mxCell>
        <mxCell id="kfbwJ9AQZt4Cy4s4MH8l-84" value="..." style="rounded=0;whiteSpace=wrap;html=1;" vertex="1" parent="1">
          <mxGeometry x="342" y="40" width="80.5" height="20" as="geometry" />
        </mxCell>
        <mxCell id="kfbwJ9AQZt4Cy4s4MH8l-86" value="&lt;font style=&quot;font-size: 18px;&quot;&gt;&lt;b&gt;Example Website menu&lt;br&gt;&lt;/b&gt;&lt;/font&gt;" style="text;html=1;align=left;verticalAlign=middle;whiteSpace=wrap;rounded=0;" vertex="1" parent="1">
          <mxGeometry x="20" y="4" width="270" height="30" as="geometry" />
        </mxCell>
        <mxCell id="kfbwJ9AQZt4Cy4s4MH8l-87" value="&lt;font style=&quot;font-size: 18px;&quot;&gt;&lt;b&gt;Model instances &lt;br&gt;&lt;/b&gt;&lt;/font&gt;" style="text;html=1;align=left;verticalAlign=middle;whiteSpace=wrap;rounded=0;" vertex="1" parent="1">
          <mxGeometry x="20" y="114" width="200" height="30" as="geometry" />
        </mxCell>
      </root>
    </mxGraphModel>
  </diagram>
</mxfile>
